<svg xmlns="http://www.w3.org/2000/svg" viewBox="0 0 1600 400" width="100%" height="100%">
  <defs>
    <linearGradient id="cloudGrad" x1="0%" y1="0%" x2="100%" y2="100%">
      <stop offset="0%" stop-color="#00b4db" />
      <stop offset="100%" stop-color="#0c4da2" />
    </linearGradient>
    <linearGradient id="arrowGrad" x1="0%" y1="100%" x2="100%" y2="0%">
      <stop offset="0%" stop-color="#f15a24" />
      <stop offset="100%" stop-color="#ff7a00" />
    </linearGradient>
  </defs>

  

  <g transform="translate(80, 50)">
    <g transform="translate(0, 20) scale(1.1)">
      <path d="M120,90 C120,62 142,40 170,40 C182,40 193,44 202,52 C212,34 231,22 253,22 C285,22 312,45 316,76 C325,71 336,68 347,68 C375,68 397,90 397,118 C397,143 379,163 355,167 L160,167 C138,163 120,143 120,90 Z" fill="url(#cloudGrad)" />
      
      
      
      
      
      <path d="M130,160 C180,180 250,160 290,100 L270,95 L330,65 L335,135 L312,125 C280,170 200,200 130,160 Z" fill="url(#arrowGrad)" />
      <path d="M370,80 L420,80 M380,60 L430,60 M365,100 L415,100" stroke="#00b4db" stroke-width="6" stroke-linecap="round" stroke-dasharray="1 15" />
    </g>

    <g transform="translate(500, 160)">
      <text font-family="system-ui, -apple-system, BlinkMacSystemFont, 'Segoe UI', Roboto, sans-serif" font-weight="800" font-size="105" fill="#0c4da2" letter-spacing="-2">azaws<tspan fill="#f15a24">lab</tspan></text>
      <text x="395" y="-5" font-family="system-ui, -apple-system, BlinkMacSystemFont, 'Segoe UI', Roboto, sans-serif" font-weight="400" font-size="42" fill="#4a5568">.co.uk</text>
      <text x="5" y="65" font-family="system-ui, -apple-system, BlinkMacSystemFont, 'Segoe UI', Roboto, sans-serif" font-weight="600" font-size="26" fill="#4a5568" letter-spacing="9">ENTERPRISE HYBRID SECURITY PLATFORM</text>
    </g>
  </g>
</svg>
