<svg xmlns="http://www.w3.org/2000/svg" viewBox="0 0 512 512">
  <defs>
    <linearGradient id="cloudGrad" x1="0%" y1="0%" x2="100%" y2="100%">
      <stop offset="0%" style="stop-color:#00B4DB;stop-opacity:1" />
      <stop offset="100%" style="stop-color:#0C4DA2;stop-opacity:1" />
    </linearGradient>
    <linearGradient id="arrowGrad" x1="0%" y1="100%" x2="100%" y2="0%">
      <stop offset="0%" style="stop-color:#F15A24;stop-opacity:1" />
      <stop offset="100%" style="stop-color:#FF7A00;stop-opacity:1" />
    </linearGradient>
  </defs>
  <g transform="translate(25, 50) scale(1.1)">
    <path d="M120,90 C120,62 142,40 170,40 C182,40 193,44 202,52 C212,34 231,22 253,22 C285,22 312,45 316,76 C325,71 336,68 347,68 C375,68 397,90 397,118 C397,143 379,163 355,167 L160,167 C138,163 120,143 120,90 Z" fill="url(#cloudGrad)" />
    <!-- Skyline Silhouette -->
    <rect x="170" y="100" width="22" height="67" fill="#FFFFFF" />
    <rect x="198" y="80" width="26" height="87" fill="#FFFFFF" />
    <rect x="230" y="110" width="18" height="57" fill="#FFFFFF" />
    <rect x="254" y="95" width="24" height="72" fill="#FFFFFF" />
    <path d="M130,160 C180,180 250,160 290,100 L270,95 L330,65 L335,135 L312,125 C280,170 200,200 130,160 Z" fill="url(#arrowGrad)" />
  </g>
</svg>
