<svg xmlns="http://www.w3.org/2000/svg" viewBox="0 0 128 96" role="img" aria-label="Azawslab">
  <defs>
    <linearGradient id="cloud" x1="12" y1="18" x2="112" y2="82" gradientUnits="userSpaceOnUse">
      <stop offset="0" stop-color="#00a8e8"/>
      <stop offset="1" stop-color="#0b4ea2"/>
    </linearGradient>
    <linearGradient id="arrow" x1="10" y1="82" x2="100" y2="18" gradientUnits="userSpaceOnUse">
      <stop offset="0" stop-color="#ff6a00"/>
      <stop offset="1" stop-color="#ff9a1f"/>
    </linearGradient>
  </defs>

  <path d="M24 69c-12 0-21-9-21-21 0-11 8-20 19-21 5-14 18-24 34-24 18 0 33 12 37 29 3-1 7-2 11-2 13 0 24 10 24 23s-11 23-24 23H25c-1 0-1 0-1-7z" fill="url(#cloud)"/>

  <path d="M10 72c26 13 61 3 79-29l-15-2 32-22 7 38-14-7C78 83 38 93 10 72z" fill="url(#arrow)"/>

  <path d="M39 54h8v18h-8zM51 43h9v29h-9zM64 50h8v22h-8z" fill="#ffffff" opacity=".92"/>

  <circle cx="104" cy="32" r="2.5" fill="#18c4e8"/>
  <circle cx="115" cy="28" r="2.5" fill="#18c4e8"/>
  <circle cx="116" cy="42" r="2.5" fill="#18c4e8"/>
</svg>